<?xml version="1.0" standalone="no"?><!DOCTYPE svg PUBLIC "-//W3C//DTD SVG 1.1//EN" "http://www.w3.org/Graphics/SVG/1.1/DTD/svg11.dtd"><svg t="1693112431332" class="icon" viewBox="0 0 1024 1024" version="1.1" xmlns="http://www.w3.org/2000/svg" p-id="2960" xmlns:xlink="http://www.w3.org/1999/xlink" width="64" height="64"><path d="M987.52 846.08l-101.44-405.12A117.44 117.44 0 0 0 772.48 352h-83.84a208 208 0 1 0-352 0H251.52a117.44 117.44 0 0 0-113.92 88.96L36.48 846.08A117.44 117.44 0 0 0 150.4 992h723.2a117.44 117.44 0 0 0 113.92-145.92zM512 162.56a80 80 0 1 1-80 80 80 80 0 0 1 80-80z m-80 640l-72.32-105.28-20.48 16.32v64c-1.6 32-16.96 45.12-41.28 45.12A39.36 39.36 0 0 1 256 780.16v-217.6c0-27.84 11.52-47.04 42.24-47.04a41.6 41.6 0 0 1 40.96 46.4v68.48l82.88-98.24a38.4 38.4 0 1 1 55.68 51.2l-56.96 62.4 79.04 109.76c30.72 46.4-27.52 93.76-67.84 46.08z m363.52 0a29.12 29.12 0 0 1-27.84 18.88c-16 0-27.52-9.6-29.76-32a106.88 106.88 0 0 1-87.04 34.56c-80.64 0-140.16-57.28-140.16-153.92S568.32 512 661.44 512c72.96 0 122.88 37.12 122.88 75.84a35.84 35.84 0 0 1-37.12 35.52c-22.4 0-41.92-44.16-81.6-44.16-49.6 0-71.68 40-71.68 87.68 0 57.6 27.52 89.28 65.6 89.28a74.56 74.56 0 0 0 36.16-9.28 49.28 49.28 0 0 0 26.24-37.76 156.8 156.8 0 0 1-55.04-5.12 32 32 0 0 1-2.88-53.12 352 352 0 0 1 99.2-5.76c30.08 0 34.88 12.48 35.84 40a770.88 770.88 0 0 1-3.84 117.44z" fill="#231F20" p-id="2961"></path></svg>